# xmcd
#
# Track frame offsets:
#	150
#	18692
#	35544
#	51088
#	69607
#	88573
#	116345
#	135312
#	151454
#	174061
#	191934
#	210801
#	227973
#	245785
#	262033
#	285198
#	304476
#
# Disc length: 4341 seconds
#
# Revision: 1
# Processed by: cddbd v1.5.1PL0 Copyright (c) Steve Scherf et al.
# Submitted via: audiograbber 1.83.01
#
DISCID=eb10f311
DTITLE=Tina Turner. - old
DYEAR=1900
DGENRE=
TTITLE0=The Best.
TTITLE1=I Don't Wanna Lose You.
TTITLE2=Goldeneye.
TTITLE3=Two People.
TTITLE4=Nutbush City Limits.
TTITLE5=On Silent Wings.
TTITLE6=Typical Male.
TTITLE7=We Don't Need Another Hero. (Thunderdome)
TTITLE8=Talk To Me Heart.
TTITLE9=River Deep - Mountain High.
TTITLE10=Steam Windows.
TTITLE11=I Want You Near Me.
TTITLE12=It Takes Two.
TTITLE13=Addicted To Love. (Live)
TTITLE14=Easy Al Love. (feat. A Kidjo)
TTITLE15=Something Beautiful Remains.
TTITLE16=Cosa Della Vita. (Duet With Eros Ramazzotti)
EXTD=
EXTT0=
EXTT1=
EXTT2=
EXTT3=
EXTT4=
EXTT5=
EXTT6=
EXTT7=
EXTT8=
EXTT9=
EXTT10=
EXTT11=
EXTT12=
EXTT13=
EXTT14=
EXTT15=
EXTT16=
PLAYORDER=
